<?xml version="1.0" encoding="utf-8"?>
<!-- Generator: Adobe Illustrator 16.0.0, SVG Export Plug-In . SVG Version: 6.00 Build 0)  -->
<!DOCTYPE svg PUBLIC "-//W3C//DTD SVG 1.1//EN" "http://www.w3.org/Graphics/SVG/1.1/DTD/svg11.dtd">
<svg version="1.1" id="图层_1" xmlns="http://www.w3.org/2000/svg" xmlns:xlink="http://www.w3.org/1999/xlink" x="0px" y="0px"
	 width="42.52px" height="42.52px" viewBox="0 0 42.52 42.52" enable-background="new 0 0 42.52 42.52" xml:space="preserve">
<polygon fill="#FFFFFF" points="36.152,33.351 29.744,33.351 25.175,25.917 16.174,25.917 22.652,14.123 21.766,12.349 
	10.855,31.441 12.697,31.441 15.084,27.759 24.154,27.759 27.494,33.419 16.174,33.419 17.131,31.509 24.154,31.509 22.994,29.533 
	16.039,29.533 13.926,33.351 7.447,33.351 21.697,8.462 25.039,14.191 19.584,23.875 26.197,23.875 30.767,31.375 32.744,31.375 
	26.062,19.849 24.833,22.031 22.652,22.031 26.062,15.964 "/>
</svg>
